<svg xmlns="http://www.w3.org/2000/svg" width="612" height="792" viewBox="0 0 612 792">
<rect width="612" height="792" fill="#ffffff"/>
<line x1="50.0" y1="120.0" x2="394.0" y2="-244.0" stroke="#8c8c8c" stroke-width="30" stroke-linecap="round"/>
<circle cx="107.3" cy="59.3" r="11" fill="#b5b5b5"/>
<circle cx="222.0" cy="-62.0" r="11" fill="#c7c7c7"/>
<circle cx="336.7" cy="-183.3" r="11" fill="#d9d9d9"/>
<line x1="64.0" y1="154.0" x2="359.0" y2="-161.0" stroke="#8c8c8c" stroke-width="30" stroke-linecap="round"/>
<circle cx="113.2" cy="101.5" r="11" fill="#b5b5b5"/>
<circle cx="211.5" cy="-3.5" r="11" fill="#c7c7c7"/>
<circle cx="309.8" cy="-108.5" r="11" fill="#d9d9d9"/>
<line x1="78.0" y1="188.0" x2="324.0" y2="-78.0" stroke="#8c8c8c" stroke-width="30" stroke-linecap="round"/>
<circle cx="119.0" cy="143.7" r="11" fill="#b5b5b5"/>
<circle cx="201.0" cy="55.0" r="11" fill="#c7c7c7"/>
<circle cx="283.0" cy="-33.7" r="11" fill="#d9d9d9"/>
<line x1="92.0" y1="222.0" x2="436.0" y2="-142.0" stroke="#8c868b" stroke-width="30" stroke-linecap="round"/>
<circle cx="149.3" cy="161.3" r="11" fill="#b5b5b5"/>
<circle cx="264.0" cy="40.0" r="11" fill="#c7c7c7"/>
<circle cx="378.7" cy="-81.3" r="11" fill="#d9d9d9"/>
<line x1="50.0" y1="256.0" x2="345.0" y2="-59.0" stroke="#8b808a" stroke-width="30" stroke-linecap="round"/>
<circle cx="99.2" cy="203.5" r="11" fill="#b5b5b5"/>
<circle cx="197.5" cy="98.5" r="11" fill="#c7c7c7"/>
<circle cx="295.8" cy="-6.5" r="11" fill="#d9d9d9"/>
<line x1="64.0" y1="290.0" x2="310.0" y2="24.0" stroke="#8b7a89" stroke-width="30" stroke-linecap="round"/>
<circle cx="105.0" cy="245.7" r="11" fill="#b5b5b5"/>
<circle cx="187.0" cy="157.0" r="11" fill="#c7c7c7"/>
<circle cx="269.0" cy="68.3" r="11" fill="#d9d9d9"/>
<line x1="78.0" y1="324.0" x2="422.0" y2="-40.0" stroke="#8b7488" stroke-width="30" stroke-linecap="round"/>
<circle cx="135.3" cy="263.3" r="11" fill="#b5b5b5"/>
<circle cx="250.0" cy="142.0" r="11" fill="#c7c7c7"/>
<circle cx="364.7" cy="20.7" r="11" fill="#d9d9d9"/>
<line x1="92.0" y1="358.0" x2="387.0" y2="43.0" stroke="#8a6f86" stroke-width="30" stroke-linecap="round"/>
<line x1="50.0" y1="392.0" x2="296.0" y2="126.0" stroke="#8a6985" stroke-width="30" stroke-linecap="round"/>
<line x1="64.0" y1="426.0" x2="408.0" y2="62.0" stroke="#8a6384" stroke-width="30" stroke-linecap="round"/>
<line x1="78.0" y1="460.0" x2="373.0" y2="145.0" stroke="#895d83" stroke-width="30" stroke-linecap="round"/>
<line x1="92.0" y1="494.0" x2="338.0" y2="228.0" stroke="#895782" stroke-width="30" stroke-linecap="round"/>
<line x1="50.0" y1="528.0" x2="394.0" y2="164.0" stroke="#895782" stroke-width="30" stroke-linecap="round"/>
<line x1="64.0" y1="562.0" x2="359.0" y2="247.0" stroke="#895782" stroke-width="30" stroke-linecap="round"/>
<line x1="78.0" y1="596.0" x2="324.0" y2="330.0" stroke="#895782" stroke-width="30" stroke-linecap="round"/>
<line x1="92.0" y1="630.0" x2="436.0" y2="266.0" stroke="#895782" stroke-width="30" stroke-linecap="round"/>
<text x="44" y="690" font-family="sans-serif" font-size="34" fill="#895782">Nutria</text>
<text x="160" y="690" font-family="sans-serif" font-size="11" fill="#a07a9c">Personal Report</text>
<circle cx="440" cy="660" r="12" fill="none" stroke="#2a8fbf" stroke-width="3"/>
<circle cx="440" cy="660" r="20" fill="none" stroke="#2a8fbf" stroke-width="3"/>
<circle cx="440" cy="660" r="28" fill="none" stroke="#2a8fbf" stroke-width="3"/>
<text x="402" y="718" font-family="sans-serif" font-size="16" fill="#2a6f99">helix lab</text>
</svg>
